# xmcd CD database file
#
# Track frame offsets:
#	150
#	21911
#	53741
#	70977
#	95334
#	124505
#	146807
#	181008
#	226619
#	255525
#	278626
#
# Disc length: 4145 seconds
#
# Revision: 0
# Processed by: cddbd v1.5.1PL0 Copyright (c) Steve Scherf et al.
# Submitted via: CDex 1.51
#
DISCID=8c102f0b
DTITLE=PE'Z - PE'Z COLOR Vol.1
DYEAR=2004
DGENRE=Jazz
TTITLE0=Akatsuki P.M.S. SCREAMING MIX
TTITLE1=Hale no sola sita〜LA YELLOW SAMBA〜 FPM punky samba mix
TTITLE2=SPIRIT SOULIVE Mix
TTITLE3=海に降る雪〜snow in the sea〜 Dubbing by the Sea
TTITLE4=アンダルシア-Andalucia- TM DAYDREAMIX
TTITLE5=T.K.O〜それ ちょっと早くない？〜 ってゆーかこれちょっとヤバくない？ミックスby NAGATA of CAMERAMANS
TTITLE6=Song For My Buffalo Little Big Bee's Over the Deep Emerald River
TTITLE7=花咲クDON BLA GO! Ashley Beedle's Shibuya Space Samba Remix
TTITLE8=across you Jazztronik Mix
TTITLE9=人が夢を見るといふ事〜Black Skyline〜 vocal remix
TTITLE10=Let it go zmh mix
EXTD=YEAR: 2004
EXTT0=
EXTT1=
EXTT2=
EXTT3=
EXTT4=
EXTT5=
EXTT6=
EXTT7=
EXTT8=
EXTT9=
EXTT10=
PLAYORDER=
